<?xml version="1.0" encoding="utf-8"?>
<!-- Generator: Adobe Illustrator 26.3.1, SVG Export Plug-In . SVG Version: 6.00 Build 0)  -->
<svg version="1.1" id="Capa_1" xmlns="http://www.w3.org/2000/svg" xmlns:xlink="http://www.w3.org/1999/xlink" x="0px" y="0px"
	 viewBox="0 0 310.2 38.1" style="enable-background:new 0 0 310.2 38.1;" xml:space="preserve">
<style type="text/css">
	.st0{fill:#1E1E1C;}
</style>
<g id="Capa_2_00000156575643024046825480000009027644161679417016_">
	<g id="Capa_1-2">
		<path class="st0" d="M103.2,34.4c0.3-0.3,0.5-0.7,0.5-1.1c0-0.7-0.3-1.6-1.9-1.6H98V38h3.9c1.1,0.1,2-0.6,2.2-1.7
			c0-0.1,0-0.2,0-0.3C104.1,35.3,103.8,34.7,103.2,34.4z M101.8,34H99v-1.5h2.8c0.6,0,0.9,0.2,0.9,0.8S102.4,34,101.8,34z M102.1,37
			H99v-2h3.1c0.6,0,1,0.5,1,1S102.7,37.1,102.1,37L102.1,37z"/>
		<polygon class="st0" points="109.8,35 112.3,35 112.3,34.1 109.8,34.1 109.8,32.5 113.9,32.5 113.9,31.6 108.8,31.6 108.8,38 
			114.1,38 114.1,37 109.8,37 		"/>
		<polygon class="st0" points="120.8,36.4 118.5,31.6 117.4,31.6 120.5,38 121.1,38 124.2,31.6 123.1,31.6 		"/>
		<polygon class="st0" points="129.1,35 131.6,35 131.6,34.1 129.1,34.1 129.1,32.5 133.2,32.5 133.2,31.6 128.1,31.6 128.1,38 
			133.4,38 133.4,37 129.1,37 		"/>
		<path class="st0" d="M143.4,33.4c0-1.1-0.8-1.8-2-1.8h-3.6V38h1v-2.7h2.2l1.5,2.7h1.1l-1.6-2.7C142.8,35.1,143.4,34.3,143.4,33.4z
			 M138.7,32.5h2.6c0.7,0,1,0.3,1,0.9s-0.4,0.9-1.1,0.9h-2.6L138.7,32.5z"/>
		<polygon class="st0" points="148.9,31.6 148,31.6 148,38 152.9,38 152.9,37 148.9,37 		"/>
		<polygon class="st0" points="158,34 155.8,31.6 154.6,31.6 157.5,34.8 157.5,38 158.5,38 158.5,34.8 161.4,31.6 160.1,31.6 		"/>
		<polygon class="st0" points="176.4,34 173,34 173,31.6 172,31.6 172,38 173,38 173,35 176.4,35 176.4,38 177.4,38 177.4,31.6 
			176.4,31.6 		"/>
		<rect x="182.4" y="31.6" class="st0" width="1" height="6.4"/>
		<polygon class="st0" points="189.4,31.6 188.5,31.6 188.5,38 193.4,38 193.4,37 189.4,37 		"/>
		<polygon class="st0" points="198.5,31.6 197.6,31.6 197.6,38 202.5,38 202.5,37 198.5,37 		"/>
		<path class="st0" d="M210.1,34.1l-0.9-0.1c-0.5,0-1.1-0.1-1.6-0.3c-0.2-0.1-0.2-0.3-0.2-0.5c0-0.5,0.6-0.8,1.5-0.8
			c0.9,0,1.7,0.3,2.4,0.9l0.1,0.1l0.6-0.8l-0.1-0.1c-0.9-0.6-1.9-1-3-1c-1.5,0-2.5,0.7-2.5,1.8c0,0.6,0.4,1.1,0.9,1.4
			c0.7,0.2,1.4,0.4,2.1,0.4h0.5c0.8,0.1,1.3,0.4,1.3,1s-0.7,1.2-1.8,1.2c-1,0-1.9-0.4-2.7-1l-0.1-0.1L206,37l0.1,0.1
			c0.9,0.7,2.1,1.1,3.3,1.1c1.9,0,2.8-1.1,2.8-2.1S211.4,34.3,210.1,34.1z"/>
		<path class="st0" d="M88.8,0.5h-3c-0.5,0-0.7,0.2-0.7,0.6s0.3,0.6,0.7,0.7h0.2c0.3,0.1,0.5,0.2,0.6,0.5c0,0.3,0,0.7,0,1v10.4
			c-1.3-2.1-2.6-4.1-3.8-5.8l-1.2-1.7c0-0.1-4.2-5.7-5.1-5.7h-2.8c-0.7,0-0.8,0.3-0.8,0.5c0,0.4,0.4,0.5,0.7,0.6h0.1
			c1,0.2,1,1,1,1.9v12.1c0,0.2,0,0.3,0,0.4c0,0.9,0,1.1-1,1.3c-0.3,0.1-0.6,0.2-0.6,0.7s0.3,0.6,0.7,0.6H77c0.3,0,0.7-0.2,0.7-0.6
			c0,0,0,0,0-0.1c0-0.5-0.4-0.6-0.8-0.7h-0.1c-0.7-0.2-0.7-0.5-0.7-1.1V3c2.5,2.8,4.7,5.9,6.7,9.2c0.2,0.3,0.4,0.6,0.6,0.9
			c0.3,0.5,0.7,1.1,1.1,1.6c0.8,1.1,1.6,2.3,2.2,3.5l0,0c0.1,0.2,0.4,0.7,0.7,0.7c0.2,0,0.3,0,0.4-0.2c0.2-0.3,0.3-0.7,0.2-1V3.4
			c0,0,0-0.1,0-0.2c0-0.3,0-0.7,0-1c0.1-0.2,0.3-0.3,0.6-0.4l0.1,0l0,0c0.3-0.1,0.6-0.2,0.6-0.6S89.2,0.5,88.8,0.5z"/>
		<path class="st0" d="M141.5,9.5c-1.1-0.7-2.3-1.2-3.6-1.4l-2.2-0.5c-1.5-0.4-3.2-1.1-3.2-3.1c0.1-1.8,1.7-3.1,3.4-3c0,0,0,0,0,0
			c1.8,0,3.5,0.8,4.5,2.2c0.3,0.4,0.6,0.6,0.8,0.6c0.1,0,0.2,0,0.3-0.1c0.1-0.2,0.2-0.5,0.2-0.7V3.4c0-0.5,0-1-0.1-1.4
			c-0.1-0.3-0.3-0.5-0.6-0.6c-1.4-0.8-2.9-1.2-4.5-1.2c-1.6-0.1-3.2,0.4-4.4,1.4c-1.2,0.9-1.8,2.3-1.9,3.8c0,3.5,3.1,4.2,6,4.9
			c2.6,0.6,5,1.1,5,3.5s-2.4,3.8-4.7,3.8c-1.2,0-2.5-0.3-3.5-1c-0.8-0.6-1.4-1.3-1.9-2.2c-0.2-0.4-0.4-0.7-0.9-0.7
			c-0.4,0-0.8,0.4-0.7,0.8c0,0,0,0,0,0c0,1.2,1.4,2.6,2.2,3.2c1.4,0.9,3,1.3,4.6,1.3c1.8,0.1,3.5-0.5,4.9-1.5c1.3-1,2-2.6,2.1-4.2
			C143.3,11.7,142.6,10.4,141.5,9.5z"/>
		<path class="st0" d="M168.3,2.5c0-0.6-0.2-1.3-0.5-1.9c-0.1-0.1-0.3-0.2-0.4-0.2h-13.7c-0.6,0-0.7,1.3-0.8,2c0,0.1,0,0.1,0,0.2
			v0.2c0,0.1,0,0.3-0.1,0.4c0,0.3,0.2,0.6,0.5,0.6c0,0,0,0,0.1,0c0.3-0.1,0.5-0.2,0.7-0.4l0.1-0.1c0.6-0.6,1.4-1,2.2-1.2
			c0.7-0.1,1.3-0.2,2-0.2c0.3,0,0.6,0,0.8,0.2c0.2,0.2,0.2,0.5,0.2,1v13c0,0.8,0,1-0.8,1.2c-0.3,0.1-0.7,0.2-0.7,0.6
			c0,0.6,0.6,0.6,0.9,0.6h3.4c0.4,0,0.9,0,0.9-0.6c0-0.4-0.3-0.5-0.6-0.6h-0.2c-0.3-0.1-0.6-0.2-0.6-0.5V3.4c0-0.6,0-1,0.2-1.2
			c0.3-0.2,0.6-0.3,1-0.3c0.7,0,1.4,0.1,2.1,0.3c0.7,0.2,1.3,0.5,1.8,1l0.1,0.1l0.1,0.1c0.2,0.2,0.5,0.4,0.8,0.4
			c0.3,0,0.5-0.2,0.5-0.5c0,0,0,0,0-0.1C168.4,3,168.4,2.8,168.3,2.5L168.3,2.5z"/>
		<path class="st0" d="M218.1,9.5c-1.1-0.7-2.3-1.2-3.6-1.4l-2.2-0.5c-1.5-0.4-3.2-1.1-3.2-3.1c0.1-1.8,1.7-3.1,3.4-3c0,0,0,0,0,0
			c1.8,0,3.5,0.8,4.5,2.2c0.3,0.4,0.6,0.6,0.8,0.6c0.1,0,0.2,0,0.3-0.1c0.1-0.2,0.2-0.5,0.2-0.7V3.4c0-0.5,0-1-0.1-1.4
			c-0.1-0.3-0.3-0.5-0.6-0.6c-1.4-0.8-2.9-1.2-4.5-1.2c-1.6-0.1-3.2,0.4-4.4,1.4c-1.2,0.9-1.8,2.3-1.9,3.8c0,3.5,3.1,4.2,6,4.9
			c2.6,0.6,5,1.1,5,3.5s-2.3,3.8-4.6,3.8c-1.2,0-2.5-0.3-3.5-1c-0.8-0.6-1.4-1.3-1.9-2.2c-0.2-0.3-0.4-0.7-0.9-0.7
			c-0.4,0-0.8,0.4-0.7,0.8c0,0,0,0,0,0c0,1.2,1.4,2.6,2.1,3.2c1.4,0.9,3,1.3,4.6,1.3c1.8,0.1,3.5-0.5,4.9-1.5c1.3-1,2-2.6,2-4.2
			C219.8,11.8,219.2,10.4,218.1,9.5z"/>
		<path class="st0" d="M235.9,2.9c0-0.7,0-0.9,0.8-1.1h0.1c0.3-0.1,0.6-0.2,0.6-0.6c0-0.6-0.6-0.6-0.9-0.6h-3.4
			c-0.4,0-0.9,0-0.9,0.6c0,0.5,0.3,0.6,0.6,0.7h0.1h0.1c0.4,0.1,0.6,0.2,0.6,0.4v13.9c0,0.8,0,1-0.8,1.2c-0.3,0.1-0.7,0.2-0.7,0.6
			c0,0.6,0.6,0.6,0.9,0.6h3.4c0.4,0,1,0,1-0.6c0-0.4-0.3-0.5-0.6-0.6h-0.1l-0.2-0.1c-0.3-0.1-0.6-0.2-0.6-0.4L235.9,2.9L235.9,2.9z"
			/>
		<path class="st0" d="M61.8,17.4c-0.4-0.1-0.7-0.5-0.8-0.8l-1-2.7c-1.3-4.2-3.1-8.3-5.3-12.2l0-0.1c-0.4-0.7-1-1.6-1.4-1.6
			c-0.4,0-0.8,0.7-1.2,1.5L52,1.7c-2.1,3.9-3.9,8-5.3,12.2l-0.9,2.5c-0.1,0.4-0.4,0.7-0.7,0.9c-0.2,0.1-0.4,0.4-0.4,0.6
			c0,0.6,0.9,0.6,1.1,0.6h2.5c0.4,0,1-0.1,1-0.6c0-0.3-0.2-0.5-0.5-0.6c-0.5-0.2-0.9-0.7-0.8-1.3c0-0.1,0-0.3,0-0.5
			c0.5-1.9,1.1-3.8,2-5.6l0-0.1c0.9-2.2,1.9-4.2,2-4.5l0,0l1-2.2l1.1,2.4c0.3,0.6,1,2,1.8,3.8l0.1,0.2l0,0v0.1
			c0.9,1.9,1.6,3.9,2.2,6l0,0v0.1c0.1,0.3,0.2,0.7,0.3,1c0,0.4-0.3,0.5-0.6,0.6s-0.7,0.3-0.7,0.7c0,0.6,0.7,0.6,1,0.6h3.1
			c0.2,0,0.4,0,0.6-0.1c0.2-0.1,0.4-0.3,0.3-0.5C62.2,17.7,62.1,17.5,61.8,17.4z"/>
		<path class="st0" d="M117.9,17.4c-0.4-0.1-0.7-0.5-0.8-0.8l-1-2.7c-1.3-4.2-3.1-8.3-5.3-12.2V1.6c-0.4-0.7-1-1.6-1.4-1.6
			s-0.8,0.7-1.2,1.5l-0.1,0.1c-2.1,3.9-3.9,8-5.3,12.2l-0.9,2.5c-0.1,0.4-0.4,0.7-0.7,0.9c-0.2,0.1-0.4,0.4-0.4,0.7
			c0,0.6,0.9,0.6,1.1,0.6h2.5c0.2,0,1,0,1-0.6c0-0.3-0.2-0.5-0.5-0.6c-0.5-0.2-0.9-0.7-0.8-1.3c0-0.2,0-0.3,0.1-0.5
			c0.5-1.9,1.1-3.8,1.9-5.7l0.1-0.1c1-2.4,2-4.6,2-4.6l0.9-2.1l1.1,2.4c0.2,0.5,1,2,1.7,3.8l0.1,0.2l0,0v0.1c0.9,1.9,1.6,3.9,2.2,6
			l0,0v0.1c0.1,0.3,0.2,0.7,0.3,1c0,0.4-0.3,0.5-0.6,0.6s-0.7,0.3-0.7,0.7c0,0.6,0.7,0.6,0.9,0.6h3.1c0.2,0,0.4,0,0.6-0.1
			c0.2-0.1,0.4-0.3,0.3-0.5C118.4,17.6,118.1,17.5,117.9,17.4z"/>
		<path class="st0" d="M195,17.4c-0.4-0.1-0.7-0.5-0.8-0.8l-1-2.7c-1.3-4.2-3.1-8.3-5.3-12.2l-0.1-0.1c-0.4-0.8-1-1.6-1.4-1.6
			s-0.8,0.7-1.2,1.5l-0.1,0.1c-2.1,3.9-3.8,8-5.3,12.2l-0.9,2.5c-0.1,0.4-0.4,0.7-0.7,0.9c-0.2,0.1-0.4,0.4-0.4,0.6
			c0,0.6,0.9,0.6,1.1,0.6h2.5c0.4,0,1-0.1,1-0.6c0-0.3-0.2-0.5-0.5-0.6c-0.5-0.2-0.9-0.7-0.8-1.3c0-0.2,0-0.3,0.1-0.5l0,0
			c0.5-1.9,1.1-3.8,1.9-5.6l0.1-0.1c1-2.4,2-4.6,2-4.6l0.9-2.1l1.1,2.4c0.3,0.6,1,2.1,1.7,3.8l0.1,0.2l0,0v0.1
			c0.9,1.9,1.6,3.9,2.2,6l0,0v0.1c0.1,0.3,0.2,0.7,0.3,1c0,0.4-0.3,0.5-0.6,0.6s-0.7,0.3-0.7,0.7c0,0.6,0.7,0.6,0.9,0.6h3.1
			c0.2,0,0.4,0,0.6-0.1c0.2-0.1,0.4-0.3,0.3-0.5C195.4,17.7,195.2,17.5,195,17.4z"/>
		<path class="st0" d="M265.8,17.4c-0.4-0.1-0.7-0.5-0.8-0.8l-1-2.7c-1.3-4.2-3-8.3-5.2-12.2l-0.1-0.1c-0.4-0.7-1-1.6-1.4-1.6
			s-0.7,0.7-1.2,1.5l-0.1,0.2c-2.1,3.9-3.8,8-5.3,12.2l-0.9,2.5c-0.1,0.4-0.4,0.7-0.7,0.9c-0.2,0.1-0.4,0.4-0.4,0.6
			c0,0.6,0.6,0.6,1.1,0.6h2.5c0.4,0,1-0.1,1-0.6c0-0.3-0.2-0.5-0.5-0.6c-0.5-0.2-0.9-0.7-0.8-1.3c0-0.2,0-0.3,0.1-0.5
			c0.4-1.9,1.1-3.8,1.8-5.6l0.1-0.1c1-2.4,2-4.6,2-4.6l0.9-2.1l1.1,2.4c0.3,0.6,1,2.1,1.8,3.8l0.1,0.2l0,0v0.1
			c0.9,1.9,1.6,3.9,2.2,6l0,0v0.1c0.1,0.3,0.2,0.7,0.3,1c0,0.4-0.3,0.5-0.6,0.6c-0.3,0.1-0.7,0.3-0.7,0.7c0,0.6,0.7,0.6,1,0.6h3.1
			c0.2,0,0.4,0,0.6-0.1c0.2-0.1,0.4-0.3,0.3-0.5C266.3,17.7,266.1,17.5,265.8,17.4z"/>
		<path class="st0" d="M104.4,12.4c3-2.4,5.8-2.6,8.7-1.5c0.2,0.1,1,0.6,1,1.1c0,0.3-0.3,0.5-0.7,0.1c-2.7-1.4-5.8-0.1-9.2,2.2"/>
		<path class="st0" d="M181.6,12.1c3-2.4,5.8-2.6,8.7-1.5c0.2,0.1,1,0.5,1,1.1c0,0.3-0.3,0.5-0.7,0.1c-2.7-1.4-5.8-0.1-9.2,2.1"/>
		<path class="st0" d="M58.2,12.3c0,0.3-0.5,0.4-0.8,0.1c-3.5-1.9-7.2,0.7-10.6,2.3C40,17.9,29.2,20,24,13.3
			c-1.4-1.9-1.9-5.1,0.5-6.3c1.1-0.7,2.5-0.4,3.4,0.5c0.4,0.6,0.4,1.9-0.6,2.1s-1-0.4-1.3-0.9s-1.2,0-1.6,0.4c-1.1,1-0.3,3,0.6,3.9
			c4.8,5.3,11.8,3.5,17.6,1.4s9.5-5.3,14.8-3C57.8,11.5,58.1,11.8,58.2,12.3z"/>
		<path class="st0" d="M252.1,13.1c0-0.3,0.7-0.6,1.1-0.2c3.6,1.6,8.3-1.6,11.7-3.2c6.7-3.2,16.1-4.4,21.3,2.3
			c1.4,1.9,2,5.2-0.5,6.4c-1.1,0.7-2.5,0.4-3.4-0.5c-0.4-0.6-0.4-1.9,0.5-2.1c1-0.2,1.1,0.4,1.3,0.9s1.1,0.3,1.5,0
			c1.1-1,0.3-3.2-0.6-4.2c-4.6-5.2-11.8-3.9-17.6-1.9S258,16,252.8,14C252.4,13.9,252.1,13.5,252.1,13.1z"/>
	</g>
</g>
</svg>
