<?xml version="1.0" encoding="utf-8"?>
<!-- Generator: Adobe Illustrator 26.3.1, SVG Export Plug-In . SVG Version: 6.00 Build 0)  -->
<svg version="1.1" id="Capa_1" xmlns="http://www.w3.org/2000/svg" xmlns:xlink="http://www.w3.org/1999/xlink" x="0px" y="0px"
	 viewBox="0 0 195.9 34.4" style="enable-background:new 0 0 195.9 34.4;" xml:space="preserve">
<g>
	<g>
		<path d="M40,26.7c-0.4,1.2-1.4,2.1-3.5,2.4c-3.3,0.5-11.5,1.2-15-3.7C17.1,19,18,9.7,21.5,5.9C24.6,2.4,28.3,2,33,2.4
			c2.8,0.3,3.9,0.4,6.7,0.6v3.3c-2.1-2.2-5.2-2.5-8.9-2.1c-5.6,0.6-8.5,5.1-7.9,12.6c0.5,5.7,2.8,9.7,7.9,10.6
			c3.9,0.8,7-0.4,9.5-3.4C40.5,25,40.3,25.9,40,26.7z"/>
		<path d="M44.2,29"/>
		<path d="M90.1,29c0,0-10.3-13.8-16.1-20.3l-0.2,16.8c0,2,2,3.5,2,3.5H71V2.9h4.7l13.9,18.4c0,0,0.2-13.5,0.2-14.5
			c0-2.7-1.9-3.9-1.9-3.9h4.6V29H90.1z"/>
		<g>
			<path d="M123.4,29.2c-1.2-0.2-1.9-0.1-2.8-0.4c4.6-0.7,8-2.2,9.7-6.7c0.8-2.1,2.7-8.8,0.2-14c-2-4.3-5.6-6-12.2-5.9
				c-4.7,0.1-8.9,0.9-11.4,5.6c-2.6,5-1.8,11-0.8,13.7c1.6,4,4.4,6.9,8,7.4c7.9,1.1,6.6,2,10.5,4.1c2.9,1.5,4.5,1.4,6.3,1.2v-1.4
				c-1.1-0.2-1.2,0.3-2.9-0.9C126.4,30.9,126.4,29.6,123.4,29.2z M110.4,21.5c-1.3-4.7-1.1-8,0.1-11.9c2.1-6.7,12.9-8.5,16.1,0.2
				c1.4,3.7,1.5,7.6,0.4,11.7C124.2,30.5,112.4,28.8,110.4,21.5z"/>
		</g>
		<path d="M160,2.9h15.6v2.5c0,0-1.5-1-4.2-0.9c-2.5,0.1-7.4,1.1-7.4,1.1v8.4c0,0,3.2,0.1,4.5,0.1c2.9,0.1,6.5-0.2,6.5-0.2v2.3
			c0,0-3.6-0.2-6.4-0.1c-1.4,0.1-4.5,0.2-4.5,0.2v10.1c1.6,0.2,3.8,0.4,5.3,0.6c2.4,0.2,4.7,0.2,6.2-0.9c0.9-0.7,0.9-0.7,1.9-1.7
			c-0.4,1.7-0.6,2.7-1.4,4c-0.4,0.6-1.3,0.5-2.4,0.5L160,29V2.9z"/>
		<path d="M57.5,26.1c-1.5,1.1-3.8,1.2-6.2,0.9c-1.5-0.2-1.7-0.3-3.2-0.8V2.9l-3.9,0V29l11.4,0c1.1,0,2.1,0.1,2.4-0.5
			c0.8-1.3,1-2.4,1.4-4C58.5,25.4,58.4,25.5,57.5,26.1z"/>
		<path d="M66.7,2.9h-5.4c0,0,0.6,4.3,0.7,8.1c0.2,7-0.1,18-0.1,18h4.2c0,0-0.4-11-0.1-18C66.1,7.2,66.7,2.9,66.7,2.9z"/>
		<path d="M102.3,2.9h-5.4c0,0,0.6,4.3,0.7,8.1c0.2,7-0.1,18-0.1,18h4.2c0,0-0.4-11-0.1-18C101.7,7.2,102.3,2.9,102.3,2.9z"/>
	</g>
	<path d="M149.8,28.7c-1.5,0.5-6.8,0.9-9.5,0.1c-6.3-2.1-5.1-7.3-5-12.2c0.1-4.8,0.4-6.9-0.6-11.5c-0.2-0.8-0.3-1.3-0.5-2.2h5.4
		c-0.4,6.8-0.3,9.6-0.2,17.1c0,2.9,0.5,5.6,3.1,6.8c1.9,0.9,5.7,0.7,7.8-0.4c3.5-1.9,2.5-9.6,2.6-18.1c0.1-3.9-0.5-4.1-1.5-5.3h4
		c-0.2,6.2-0.1,11,0.1,18C155.6,26.1,153.2,27.5,149.8,28.7z"/>
</g>
</svg>
