<?xml version="1.0" encoding="utf-8"?>
<!-- Generator: Adobe Illustrator 26.3.1, SVG Export Plug-In . SVG Version: 6.00 Build 0)  -->
<svg version="1.1" id="Capa_1" xmlns="http://www.w3.org/2000/svg" xmlns:xlink="http://www.w3.org/1999/xlink" x="0px" y="0px"
	 viewBox="0 0 232.8 80.7" style="enable-background:new 0 0 232.8 80.7;" xml:space="preserve">
<style type="text/css">
	.st0{fill:#1D1D1B;}
</style>
<g id="Capa_2_00000160169257524868392670000013848805392232830631_">
	<g id="Capa_1-2">
		<path class="st0" d="M179.4,31.2c-1.3,0-3.9,4-5.8,7.6c-0.1,2-0.2,6.2-0.2,8c0,1.5,0.7,3.3,2.6,3.3c2.5,0,4.3-5.3,4.5-8.4
			C180.8,38.6,181.2,31.2,179.4,31.2 M164.7,39.2c-0.1-3.4-0.3-8-2.7-9c-1.4-0.6-3.7,0.9-3.7,4.1c0,3.4,2.2,5.7,4.1,5.7
			C163.2,40,164,39.7,164.7,39.2 M164.3,42c-3.5,1.9-7.2,0-8.2-4.2c-0.3,1.8-0.4,3.6-0.4,5.4c0,5.8,2.7,7,4,7
			C162.5,50.3,164.3,45.5,164.3,42 M147.8,39.6c0-4.3-0.6-8.6-2.7-9.4c-1.4-0.6-3.7,0.9-3.7,4.1c0,3.4,2.2,6,4.1,6
			C146.4,40.4,147.2,40.1,147.8,39.6 M147.6,42.5c-3.5,1.9-7.2-0.3-8.2-4.6c-0.3,1.8-0.4,3.6-0.4,5.4c0,5.8,2.6,7,4,7
			C145.7,50.3,147.6,46.1,147.6,42.5 M182.5,28.4c1.5,1.8,2.1,6.7,1.8,11.1c-0.2,3.3-0.9,6.7-2.1,9.9c-1.3,3-3.2,4.5-5.3,4.5
			c-2.1,0-3.6-2.2-3.6-2.2S173,59,173,65c-0.1,3.1,0.1,6.2,0.4,9.2c0.1,0.3-0.2,0.7-0.5,0.8c-0.1,0-0.2,0-0.3,0
			c-0.8-0.2-1.5-0.6-1.9-1.2c-0.7-0.7-1-1.6-1.2-2.6c-0.3-4.4-0.3-8.8,0.1-13.2c0.3-3,0.4-6.8,0.4-9.4c0-1.3,0.2-6.8,0.3-11.7
			c-0.8,1.5-1.8,2.9-3.1,4c0,3.7-1.6,12.9-7.8,12.9c-2.2,0-6.6-2-6.6-10.2c0-1.7,0.2-3.4,0.4-5.1c-0.9,0.9-1.7,1.7-2.7,2.5
			c0,3.4-1.6,12.9-7.8,12.9c-2.1,0-6.6-2-6.6-10.2c0-5.3,1.5-10.6,2.8-11.6c1-3.3,3.1-4.9,5.7-4.9c3.3,0,6,3,6,11.2
			c1.1-1,2.1-2.1,3-3.4c0.9-1.3,1.5-2.7,2.2-4c0.9-1.6,2.3-3.8,5.5-3.8c3.3,0,6,2.3,6,10.6c1.1-1.1,3-3.7,3.4-8.8
			c0-0.9,0.1-1.4,0.1-1.4c-0.1-0.6,0.3-1.1,0.9-1.2c0.6-0.2,1.1-0.3,1.7-0.4c0.5-0.1,0.9,0.3,0.9,0.9c-0.1,1.2-0.7,7.4-0.7,7.4
			c1.5-2.7,3.5-6.6,5.5-7.1C180.4,26.8,181.7,27.3,182.5,28.4 M85.6,31.2c-1.3,0-3.9,4-5.8,7.6c-0.1,2-0.2,6.2-0.2,8
			c0,1.5,0.7,3.3,2.6,3.3c2.5,0,4.3-5.3,4.5-8.4C87,38.6,87.4,31.2,85.6,31.2 M88.6,28.4c1.5,1.8,2.1,6.7,1.8,11.1
			c-0.2,3.3-0.9,6.7-2.1,9.9c-1.4,3-3.2,4.5-5.3,4.5s-3.6-2.2-3.6-2.2s-0.3,7.3-0.3,13.3c-0.1,3.1,0.1,6.2,0.4,9.2
			c0.1,0.3-0.2,0.7-0.5,0.8c-0.1,0-0.2,0-0.3,0c-0.8-0.2-1.5-0.6-1.9-1.2c-0.7-0.7-1-1.6-1.2-2.6c-0.3-4.4-0.3-8.8,0.1-13.2
			c0.3-3,0.4-6.8,0.4-9.4s0.7-21,0.7-21c-0.1-0.6,0.3-1.1,0.9-1.1c0.6-0.2,1.1-0.3,1.7-0.4c0.6-0.1,0.9,0.3,0.9,0.9
			c-0.1,1.2-0.5,4.9-0.7,6.7c1.5-2.4,3.5-6,5.5-6.4C86.6,26.8,87.9,27.3,88.6,28.4 M128.6,30.4c-3.1,0-4.6,5.8-4.8,10.7
			c-0.2,5.1,0.7,9,2.7,9c2,0,3.7-4.8,3.9-7.7c0.2-1.5,0.3-3.5,0.3-5.1C130.9,35.8,131.3,30.4,128.6,30.4 M135.2,27.1
			c-0.4,2.4-0.8,4.9-1,7.4c-0.2,1.5-0.3,6.1-0.3,8v15.4c0,11.7-0.6,16.4-6.6,16.4c-6.1,0-11.4-7.6-11.8-11.6c0-0.3,0.1-0.8,1-0.8
			c1.5-0.3,3,0.5,3.6,1.9c1.3,2.2,4.1,7.8,8.6,7.8c2,0,2.1-5.5,2.1-13s-0.1-9-0.1-9s-1.2,4.2-4.6,4.2c-1.5,0-5.9-0.7-5.7-11.6
			c0.2-4.6,0.8-9.7,3.4-13c0.8-1.1,2-1.9,3.3-2.1c0.8-0.2,1.5-0.2,2.3,0.1c1.1,0.3,2.1,1.2,2.5,2.3c0.2-1.3,0.3-1.7,0.3-2.5
			c0.1-0.4,0.4-0.9,0.9-0.9c0.5-0.2,1.1-0.3,1.6-0.3C135.5,25.8,135.4,26.4,135.2,27.1 M50.4,34.3c-2.1-2.1-3.7-4.1-3.7-10.5
			c0-5,1.8-14.1,5.1-14.1c5.1,0,3.9,15.1,2.7,18.6c-0.1,0.3-0.2,0.7,0,0.9c0.3,0.2,0.9,0.2,1.2,0c0.7-0.2,1.3-0.7,1.5-1.4
			c1.2-3.4,1.2-8.8,1.2-11.9c0.1-7.1-3.2-10.2-6.2-10.2c-7.6,0-8.8,16-8.8,19.9c0.1,3.6,0.3,6.6,2.3,9.4c2.6,3.7,9.7,6.2,9.7,12.4
			c0,2-2,4.3-4.9,4.3c-6.1,0-6.5-6.7-6.5-8.4c0-0.9,0.2-1.5,0.2-2c0-0.8-0.1-1-0.9-1c-0.3,0-0.9-0.1-1.5,1c-0.7,1.7-0.9,3.4-0.9,5.2
			c-0.2,4.9,3.7,9.1,8.6,9.3c0.2,0,0.4,0,0.6,0c2.7,0,8.6-1.9,8.6-8.8C58.8,40.7,52.5,36.4,50.4,34.3 M73.2,26.7
			c-0.5,0.1-1.4,0.2-1.6,0.3c-0.6,0.1-0.9,0.3-0.9,0.9c-0.1,0.9-0.4,5.7-0.7,9.1c-0.3,3.9-0.5,6.6-0.7,9.5c-0.7,2.2-2.1,3.4-3.8,3.3
			c-2.3-0.1-1.7-5-1.5-8.8c0.3-3.9,0.9-12.1,0.9-13.1c0-0.5-0.2-0.8-0.7-0.7c-0.5,0.1-1.8,0.3-2,0.4c-0.2,0.1-0.4,0.2-0.6,0.3
			c-0.2,0.2-0.3,0.3-0.3,0.6c-0.2,1.8-0.3,6.3-0.4,10.4c-0.2,3.4-0.3,5.1-0.3,8.9c0,3.5,1.4,5.9,3.9,5.9c2.8,0,4.8-3.3,4.8-3.3
			c0,0.9,0.7,4.1,2.7,4.1c0.5,0,0.9-0.2,0.9-0.7l0,0c-0.1-2.1-0.1-5.4-0.1-7.9c0.3-4.5,0.6-10.9,0.9-15.9c0,0,0.2-2.1,0.2-2.4
			C73.9,27.2,73.7,26.7,73.2,26.7 M188.8,48.1c-1.7,0-3.1,1.4-3.1,3c0,1.7,1.4,3.1,3,3.1s3.1-1.4,3.1-3l0,0
			C191.9,49.5,190.5,48.1,188.8,48.1 M95.2,41.1c0.3,0.1,0.8,0.1,1.1,0.1c2.9,0,5.1-4,5.3-7.3c0.2-1.9,0-3.7-1-4.1
			c-1-0.4-2.7,0.9-3.7,3.3C96,35.6,95.4,38.3,95.2,41.1 M110.7,53.7L110.7,53.7c0,0.3-0.3,0.7-0.7,0.7c-0.1,0-0.2,0-0.2,0
			c-3.3-1-2.9-3.4-2.9-4c0-0.6,0-2.4,0.1-3.5c-1.8,2.9-4.6,7-8.9,7c-5.2,0-6.1-5.3-6.1-9.5c0-3.7,0.9-8.9,2.1-11.9
			c1.5-3.4,3.7-5.8,6.7-5.8c3.4,0,4.5,3.5,4.2,7.3c-0.3,3.5-3.3,10.4-8.8,10.4c-0.3,0-0.7,0-1-0.2c0,3.3,0.5,6.2,3.4,6.2
			c2.9,0,8.4-5.2,9-12.8c0.6-7.6,0.9-8.6,1.1-10.3c0.1-0.4,0.3-0.6,0.8-0.7c0.4-0.1,1.5-0.3,1.9-0.3c0.3,0,0.5,0.1,0.7,0.3
			c0.2,0.3,0.3,0.5,0.2,0.9c-0.4,2.2-0.8,4.7-1.1,8.2c1.6-2.7,3.3-5.2,5.3-7.7c0.9-0.9,2.9-0.7,3.4-0.4c0.2,0.1,0.3,0.2,0.3,0.3
			s-0.3,2.1-0.5,3.9c-0.2,1.4-0.3,2.8-0.3,4.2c0,0.3-0.3,0.6-0.6,0.6l0,0c-0.8,0-1.5-0.2-2.1-0.7c-0.4-0.3-0.7-0.9-0.6-1.5
			c0-0.9,0.1-2.4,0.1-2.4s-4.5,7.4-5.4,9.3C110.6,44.5,110.6,48.6,110.7,53.7 M187.8,42.4l-0.5-30.1c0-1.3,0.3-1.7,1.2-2.1
			c0.7-0.3,1.4-0.5,2.1-0.8c0.4-0.1,0.9,0.2,1,0.7v0.1l-1.3,34.2c0,0.6-0.3,0.9-0.8,0.8c-0.5-0.1-0.9-0.3-1.3-0.7
			C187.9,43.8,187.7,43.1,187.8,42.4"/>
	</g>
</g>
</svg>
