<?xml version="1.0" encoding="utf-8"?>
<!-- Generator: Adobe Illustrator 26.3.1, SVG Export Plug-In . SVG Version: 6.00 Build 0)  -->
<svg version="1.1" id="Capa_1" xmlns="http://www.w3.org/2000/svg" xmlns:xlink="http://www.w3.org/1999/xlink" x="0px" y="0px"
	 viewBox="0 0 192 18.3" style="enable-background:new 0 0 192 18.3;" xml:space="preserve">
<g id="Capa_2_00000074418481311350337180000004205937811053952424_">
	<g id="Capa_1-2">
		<g id="R1uPAI">
			<path d="M108.2,14.2v0.7h-3.7V0h3.7v4.6c1.7-1.2,3.9-1.6,5.8-0.9c1.2,0.4,2.3,1.1,3,2.2c1.5,2.3,1.3,5.3-0.4,7.5
				C114.4,15.7,110.8,16,108.2,14.2z M114.4,9.4L114.4,9.4V9.1c0-1.1-0.6-2.2-1.6-2.7c-0.7-0.4-1.6-0.5-2.3-0.3
				c-1.8,0.4-2.9,2.2-2.5,3.9c0,0,0,0,0,0.1c0.4,1.8,2.1,2.9,3.9,2.6c0,0,0,0,0,0c1.1-0.1,2.1-0.9,2.4-2
				C114.3,10.2,114.4,9.8,114.4,9.4z"/>
			<path d="M20.4,13.9v4.3h-3.5V3.8h3.4c0.2,0,0.3,0.1,0.3,0.3c0,0.1,0,0.2,0,0.4c0.5-0.3,1.1-0.5,1.7-0.7c1.4-0.4,3-0.5,4.4,0
				c2,0.5,3.5,2.2,3.7,4.2c0.2,1,0.2,2.1-0.1,3.1c-0.3,1.4-1.2,2.6-2.5,3.3c-1.9,1.1-4.3,1.2-6.3,0.3c-0.2-0.1-0.4-0.2-0.5-0.3
				L20.4,13.9z M27,9.2L27,9.2c0-0.8-0.3-1.5-0.7-2.2c-0.8-1-2.2-1.4-3.5-1c-1.6,0.3-2.6,1.8-2.6,3.4c0.1,1.2,0.8,2.3,2,2.8
				c1.5,0.8,3.4,0.3,4.3-1.3c0-0.1,0.1-0.2,0.1-0.3C26.8,10.2,26.9,9.7,27,9.2z"/>
			<path d="M44.8,14.9h-3.7v-0.7c-2.7,1.9-6.4,1.5-8.6-1c-1.6-2.3-1.6-5.3,0-7.6c2.2-2.5,5.9-2.9,8.6-1V3.9h3.7V14.9z M35,9.4
				c-0.1,1.7,1.1,3.2,2.8,3.3c0.2,0,0.3,0,0.5,0c1.9,0,3.4-1.5,3.4-3.3S40.1,6,38.3,6c-1.7-0.1-3.2,1.2-3.3,2.9
				C35,9.1,35,9.2,35,9.4z"/>
			<path d="M102.4,14.9h-3.7v-0.7c-1.4,1-3.1,1.4-4.8,1.1c-1.7-0.2-3.2-1.2-4.1-2.7c-1.4-2.4-1.1-5.4,0.7-7.4
				c2.2-2.2,5.7-2.4,8.2-0.6V3.9h3.7L102.4,14.9z M92.5,9.4c-0.1,1.7,1.1,3.2,2.8,3.3c0.2,0,0.3,0,0.5,0c1.8-0.1,3.3-1.7,3.2-3.5
				c-0.1-1.7-1.5-3.1-3.2-3.2c-1.7-0.1-3.2,1.1-3.3,2.8C92.5,9,92.5,9.2,92.5,9.4z"/>
			<path d="M128.7,4.6V3.9h3.7v11h-3.7v-0.7c-1.6,1.2-3.7,1.6-5.6,1c-1.3-0.3-2.4-1.1-3.2-2.1c-1.6-2.3-1.5-5.4,0.3-7.6
				C122.5,3.1,126.1,2.7,128.7,4.6z M129.2,9.4c0-0.2,0-0.4-0.1-0.6c-0.3-1.8-1.9-3-3.7-2.7c0,0-0.1,0-0.1,0c-1.2,0.1-2.2,1-2.5,2.1
				c-0.2,0.8-0.2,1.6,0,2.4c0.1,0.4,0.4,0.8,0.7,1.2c1,0.9,2.4,1.2,3.7,0.7C128.4,12,129.2,10.7,129.2,9.4z"/>
			<path d="M175.1,10.3h-9.6c0,0.8,0.3,1.5,1,2c0.9,0.5,1.9,0.7,2.9,0.4c0.7-0.2,1.3-0.6,1.8-1.1c0.1-0.1,0.1-0.1,0.2-0.1h3.4h0.1
				c-0.1,0.3-0.2,0.6-0.3,0.9c-0.5,1-1.4,1.8-2.5,2.3c-2.2,1-4.7,1-6.9,0.1c-1.8-0.6-3.1-2.2-3.3-4.1c-0.4-2.1,0.2-4.2,1.7-5.7
				c0.8-0.8,1.9-1.3,3-1.5c1.4-0.3,2.9-0.3,4.3,0.1c2,0.5,3.6,2.1,4,4.1C175,8.5,175.1,9.4,175.1,10.3z M171.4,7.9
				c0-0.8-0.5-1.5-1.3-1.9c-0.4-0.2-0.7-0.3-1.1-0.3c-0.8-0.1-1.7,0-2.4,0.4c-0.6,0.4-1,1.1-1.1,1.8L171.4,7.9z"/>
			<path d="M73.6,9.5c0.1,2.2-1.2,4.2-3.2,5.1c-2.1,1-4.4,1.2-6.6,0.4c-2.4-0.7-4.1-3-4-5.5c-0.2-2.4,1.3-4.6,3.6-5.4
				c2-0.8,4.3-0.8,6.3,0C72.1,4.9,73.7,7.1,73.6,9.5z M69.8,9.5c-0.1-1.8-1.6-3.2-3.4-3.2c-1.8,0.1-3.2,1.6-3.2,3.4
				c0.1,1.8,1.5,3.2,3.3,3.2C68.4,12.9,69.9,11.4,69.8,9.5L69.8,9.5z"/>
			<path d="M137.7,14.9H134v-11h3.7v0.9c0.5-0.3,0.9-0.6,1.4-0.9c1.7-0.7,3.5-0.7,5.2,0c1.2,0.5,2,1.7,1.9,3v8h-3.7V8.1
				c0.1-0.8-0.4-1.6-1.2-1.8c-0.1,0-0.1,0-0.2,0c-0.6-0.1-1.1-0.1-1.7,0c-1,0.1-1.8,1.1-1.7,2.1c0,2,0,4.1,0,6.1V14.9z"/>
			<path d="M160.3,14.9h-3.7V8.1c0.1-0.8-0.4-1.6-1.3-1.8c-0.1,0-0.1,0-0.2,0c-0.6-0.1-1.2-0.1-1.7,0c-1.1,0.1-1.8,1.1-1.7,2.2
				c0,2,0,4,0,6v0.4H148v-11h3.7v0.9h0.1c1.3-1.1,2.9-1.6,4.6-1.4c0.9,0,1.8,0.3,2.5,0.8c0.9,0.6,1.4,1.5,1.4,2.6c0,2.7,0,5.3,0,8
				C160.3,14.7,160.3,14.8,160.3,14.9z"/>
			<path d="M59.1,10.5c0,0.5-0.1,1-0.3,1.5c-0.5,1.2-1.5,2.2-2.7,2.6c-2.2,0.9-4.7,0.8-6.9-0.1c-1.9-0.8-3.2-2.6-3.3-4.6
				c-0.1-0.9,0-1.8,0.3-2.7c0.4-1.5,1.6-2.8,3.1-3.3c2.1-0.8,4.4-0.9,6.5-0.1c1.8,0.5,3.1,2.1,3.3,3.9c0,0.1,0,0.1,0,0.2v0.2h-3.3
				c-0.2-0.4-0.4-0.7-0.6-1.1c-0.6-0.9-1.8-1.3-2.8-1c-1.7,0.2-2.8,1.7-2.7,3.3c-0.1,1.5,0.9,2.9,2.4,3.3c1.5,0.4,3-0.4,3.6-1.9
				c0.1-0.2,0.1-0.3,0.3-0.3L59.1,10.5L59.1,10.5z"/>
			<path d="M80,3.8h3.3v1.4c0.1-0.1,0.1-0.1,0.2-0.2C84,4.2,85,3.7,86.1,3.6c0.7-0.1,1.5,0,2.2,0.3c0.3,0.1,0.4,0.3,0.4,0.6
				c0,0.9,0,1.8,0,2.7l-0.3-0.1c-1-0.4-2.1-0.5-3.2-0.3c-0.9,0.1-1.5,0.8-1.7,1.6c-0.2,0.7-0.2,1.3-0.3,2c0,1.4,0,2.7,0,4.1v0.4H80
				L80,3.8z"/>
		</g>
	</g>
</g>
</svg>
